<?xml version="1.0" encoding="UTF-8" standalone="no"?>
<!-- Generator: Adobe Illustrator 27.4.0, SVG Export Plug-In . SVG Version: 6.00 Build 0)  -->

<svg
   version="1.1"
   id="Слой_1"
   x="0px"
   y="0px"
   viewBox="0 0 447 32"
   style="enable-background:new 0 0 447 32;"
   xml:space="preserve"
   sodipodi:docname="logo_fiep_horizon.svgz"
   xmlns:inkscape="http://www.inkscape.org/namespaces/inkscape"
   xmlns:sodipodi="http://sodipodi.sourceforge.net/DTD/sodipodi-0.dtd"
   xmlns="http://www.w3.org/2000/svg"
   xmlns:svg="http://www.w3.org/2000/svg"><defs
   id="defs117" /><sodipodi:namedview
   id="namedview115"
   pagecolor="#ffffff"
   bordercolor="#000000"
   borderopacity="0.25"
   inkscape:showpageshadow="2"
   inkscape:pageopacity="0.0"
   inkscape:pagecheckerboard="0"
   inkscape:deskcolor="#d1d1d1" />
<style
   type="text/css"
   id="style2">
	.st0{fill:#EAD853;}
	.st1{fill:#C42052;}
	.st2{fill:#87B964;}
	.st3{fill:#2CB6DB;}
	.st4{fill:#246AB2;}
</style>
<g
   id="g112">
	<g
   id="g92">
		<path
   d="M217.93,11.61c-0.88-0.04-1.68-0.21-2.4-0.5c-0.71-0.29-1.32-0.67-1.83-1.14s-0.9-1.01-1.17-1.63s-0.41-1.27-0.41-1.97    s0.14-1.35,0.41-1.97s0.66-1.16,1.17-1.63s1.12-0.85,1.83-1.14s1.51-0.46,2.4-0.5V0h2.45v1.14c0.88,0.04,1.68,0.21,2.4,0.5    c0.71,0.29,1.32,0.67,1.83,1.14s0.9,1.01,1.17,1.63s0.41,1.27,0.41,1.97s-0.14,1.35-0.41,1.97s-0.66,1.16-1.17,1.63    s-1.12,0.85-1.83,1.14s-1.51,0.46-2.4,0.5v1.14h-2.45V11.61z M217.93,3.35c-0.49,0.02-0.94,0.11-1.34,0.28    c-0.4,0.16-0.75,0.38-1.03,0.65s-0.5,0.59-0.66,0.95c-0.16,0.36-0.24,0.74-0.24,1.14c0,0.41,0.08,0.8,0.24,1.15    s0.38,0.67,0.66,0.94c0.28,0.27,0.63,0.49,1.03,0.65s0.85,0.26,1.34,0.28V3.35z M220.38,9.4c0.49-0.02,0.94-0.11,1.34-0.28    c0.4-0.16,0.75-0.38,1.03-0.65c0.28-0.27,0.5-0.59,0.66-0.94s0.24-0.74,0.24-1.15c0-0.4-0.08-0.78-0.24-1.14s-0.38-0.68-0.66-0.95    s-0.63-0.49-1.03-0.65s-0.85-0.26-1.34-0.28V9.4z"
   id="path4" />
		<path
   d="M231.34,12.43c-0.65,0-1.26-0.11-1.82-0.34c-0.56-0.23-1.05-0.54-1.46-0.94s-0.73-0.87-0.96-1.41    c-0.23-0.54-0.34-1.11-0.34-1.72s0.11-1.19,0.34-1.72c0.23-0.54,0.55-1.01,0.96-1.41c0.41-0.4,0.89-0.71,1.46-0.94    c0.56-0.23,1.17-0.34,1.82-0.34c0.65,0,1.26,0.11,1.81,0.34s1.04,0.54,1.45,0.94s0.73,0.87,0.96,1.41    c0.23,0.54,0.35,1.11,0.35,1.72s-0.12,1.19-0.35,1.72c-0.23,0.54-0.56,1.01-0.96,1.41s-0.89,0.71-1.45,0.94    C232.59,12.31,231.99,12.43,231.34,12.43z M231.34,10.46c0.3,0,0.59-0.06,0.86-0.18s0.5-0.29,0.7-0.5s0.36-0.47,0.47-0.77    c0.11-0.3,0.17-0.63,0.17-1.01c0-0.37-0.06-0.71-0.17-1.01s-0.27-0.56-0.47-0.77s-0.44-0.38-0.7-0.5    c-0.27-0.12-0.55-0.18-0.86-0.18s-0.59,0.06-0.86,0.18s-0.5,0.29-0.7,0.5s-0.36,0.47-0.47,0.77s-0.17,0.64-0.17,1.01    c0,0.37,0.06,0.71,0.17,1.01s0.27,0.56,0.47,0.77s0.44,0.38,0.7,0.5C230.74,10.4,231.03,10.46,231.34,10.46z"
   id="path6" />
		<path
   d="M236.89,3.84h2.29v3.11h3.52V3.84h2.29v8.34h-2.29V8.91h-3.52v3.27h-2.29V3.84z"
   id="path8" />
		<path
   d="M245.64,10.22h0.9l1.72-6.38h4.41l1.72,6.38h0.9v3.68h-2.13v-1.72h-5.4v1.72h-2.13v-3.68H245.64z M252.1,10.22l-1.23-4.41    h-0.82l-1.23,4.41H252.1z"
   id="path10" />
		<path
   d="M260.19,3.84h2.29v3.6l-0.08,1.47h0.16l3.35-5.07h2.45v8.34h-2.29v-3.6l0.08-1.47H266l-3.35,5.07h-2.45L260.19,3.84    L260.19,3.84z"
   id="path12" />
		<path
   d="M269.84,3.84h2.29v3.11h3.52V3.84h2.29v8.34h-2.29V8.91h-3.52v3.27h-2.29V3.84z"
   id="path14" />
		<path
   d="M283.25,12.34c-0.61-0.04-1.18-0.19-1.71-0.43c-0.53-0.24-0.99-0.55-1.37-0.94c-0.39-0.39-0.69-0.83-0.92-1.34    c-0.22-0.51-0.33-1.05-0.33-1.63c0-0.57,0.11-1.11,0.33-1.62s0.53-0.96,0.92-1.35s0.84-0.7,1.37-0.94s1.1-0.38,1.71-0.43V0.74    h2.29v2.94c0.61,0.04,1.18,0.19,1.71,0.43s0.99,0.55,1.37,0.94c0.39,0.39,0.69,0.84,0.92,1.35c0.22,0.51,0.34,1.05,0.34,1.62    c0,0.58-0.11,1.12-0.34,1.63c-0.22,0.51-0.53,0.95-0.92,1.34s-0.85,0.7-1.37,0.94c-0.53,0.24-1.1,0.38-1.71,0.43v2.91h-2.29V12.34    z M283.25,5.64c-0.58,0.09-1.05,0.33-1.41,0.73c-0.37,0.4-0.55,0.95-0.55,1.64c0,0.7,0.18,1.25,0.55,1.64s0.84,0.64,1.41,0.73    V5.64z M285.54,10.38c0.58-0.09,1.05-0.33,1.41-0.73c0.36-0.4,0.55-0.95,0.55-1.64c0-0.7-0.18-1.25-0.55-1.64    c-0.37-0.4-0.84-0.64-1.41-0.73V10.38z"
   id="path16" />
		<path
   d="M290.85,3.84h2.29V4.9h0.08c0.17-0.24,0.39-0.46,0.64-0.65c0.22-0.16,0.49-0.31,0.81-0.45s0.71-0.2,1.17-0.2    c0.53,0,1.03,0.1,1.5,0.31c0.46,0.21,0.87,0.5,1.22,0.88s0.62,0.84,0.83,1.39c0.2,0.55,0.3,1.16,0.3,1.83s-0.1,1.29-0.3,1.83    c-0.2,0.55-0.48,1.01-0.83,1.39c-0.35,0.38-0.75,0.68-1.22,0.88c-0.46,0.21-0.96,0.31-1.5,0.31c-0.46,0-0.85-0.07-1.17-0.2    c-0.32-0.14-0.59-0.29-0.81-0.45c-0.25-0.2-0.46-0.41-0.64-0.65h-0.08v4.17h-2.29V3.84z M295.27,10.46c0.58,0,1.06-0.21,1.46-0.64    c0.39-0.43,0.59-1.03,0.59-1.82c0-0.78-0.2-1.39-0.59-1.82c-0.39-0.42-0.88-0.64-1.46-0.64c-0.62,0-1.13,0.21-1.53,0.64    s-0.6,1.03-0.6,1.82s0.2,1.39,0.6,1.82C294.14,10.25,294.64,10.46,295.27,10.46z"
   id="path18" />
		<path
   d="M304.18,12.43c-0.53,0-1.03-0.1-1.5-0.31c-0.46-0.21-0.87-0.5-1.22-0.88s-0.62-0.84-0.83-1.39    c-0.2-0.54-0.3-1.16-0.3-1.83s0.1-1.29,0.3-1.83c0.2-0.55,0.48-1.01,0.83-1.39c0.35-0.38,0.75-0.68,1.22-0.88    c0.46-0.21,0.96-0.31,1.5-0.31c0.46,0,0.85,0.07,1.17,0.2c0.32,0.14,0.59,0.29,0.81,0.45c0.25,0.2,0.46,0.41,0.64,0.65h0.08V3.84    h2.29v8.34h-2.29v-1.06h-0.08c-0.17,0.24-0.39,0.46-0.64,0.65c-0.22,0.16-0.49,0.31-0.81,0.45    C305.02,12.36,304.63,12.43,304.18,12.43z M304.75,10.46c0.62,0,1.13-0.21,1.53-0.64s0.6-1.03,0.6-1.82c0-0.78-0.2-1.39-0.6-1.82    c-0.4-0.42-0.91-0.64-1.53-0.64c-0.58,0-1.06,0.21-1.46,0.64C302.9,6.61,302.7,7.21,302.7,8s0.2,1.39,0.59,1.82    C303.69,10.25,304.17,10.46,304.75,10.46z"
   id="path20" />
		<path
   d="M314.64,12.43c-0.63,0-1.22-0.11-1.77-0.34c-0.55-0.23-1.03-0.54-1.43-0.94s-0.72-0.87-0.95-1.41s-0.34-1.11-0.34-1.72    s0.11-1.19,0.34-1.72c0.23-0.54,0.54-1.01,0.95-1.41c0.4-0.4,0.88-0.71,1.43-0.94s1.14-0.34,1.77-0.34c0.45,0,0.85,0.05,1.21,0.14    c0.36,0.09,0.68,0.22,0.96,0.37c0.28,0.15,0.53,0.33,0.74,0.52c0.21,0.2,0.4,0.4,0.55,0.61c0.36,0.48,0.62,1.02,0.78,1.64h-2.37    c-0.1-0.24-0.23-0.46-0.39-0.65c-0.15-0.16-0.35-0.31-0.58-0.45c-0.23-0.14-0.54-0.2-0.91-0.2c-0.28,0-0.55,0.06-0.81,0.18    s-0.48,0.29-0.68,0.5c-0.2,0.21-0.35,0.47-0.47,0.77c-0.11,0.3-0.17,0.64-0.17,1.01s0.06,0.71,0.17,1.01    c0.11,0.3,0.27,0.56,0.47,0.77c0.2,0.21,0.42,0.38,0.68,0.5c0.26,0.12,0.53,0.18,0.81,0.18c0.37,0,0.67-0.07,0.91-0.2    c0.23-0.14,0.43-0.29,0.58-0.45c0.16-0.2,0.29-0.41,0.39-0.65h2.37c-0.14,0.61-0.39,1.16-0.75,1.64    c-0.15,0.21-0.33,0.41-0.55,0.61c-0.21,0.2-0.46,0.37-0.74,0.52c-0.28,0.15-0.61,0.28-0.97,0.37    C315.51,12.38,315.1,12.43,314.64,12.43z"
   id="path22" />
		<path
   d="M321.84,5.8h-2.78V3.84h7.85V5.8h-2.78v6.38h-2.29V5.8z"
   id="path24" />
		<path
   d="M327.56,3.84h2.29V4.9h0.08c0.17-0.24,0.39-0.46,0.64-0.65c0.22-0.16,0.49-0.31,0.81-0.45s0.71-0.2,1.17-0.2    c0.53,0,1.03,0.1,1.5,0.31c0.46,0.21,0.87,0.5,1.22,0.88s0.62,0.84,0.83,1.39c0.2,0.55,0.3,1.16,0.3,1.83s-0.1,1.29-0.3,1.83    c-0.2,0.55-0.48,1.01-0.83,1.39c-0.35,0.38-0.75,0.68-1.22,0.88c-0.46,0.21-0.96,0.31-1.5,0.31c-0.46,0-0.85-0.07-1.17-0.2    c-0.32-0.14-0.59-0.29-0.81-0.45c-0.25-0.2-0.46-0.41-0.64-0.65h-0.08v4.17h-2.29V3.84z M331.97,10.46c0.58,0,1.06-0.21,1.46-0.64    c0.39-0.43,0.59-1.03,0.59-1.82c0-0.78-0.2-1.39-0.59-1.82c-0.39-0.42-0.88-0.64-1.46-0.64c-0.62,0-1.13,0.21-1.53,0.64    s-0.6,1.03-0.6,1.82s0.2,1.39,0.6,1.82S331.35,10.46,331.97,10.46z"
   id="path26" />
		<path
   d="M340.72,12.18h-1.8l-2.21-8.34h2.37l1.64,6.38h0.65l1.8-6.38h2.37l-3.35,11.45h-2.37L340.72,12.18z"
   id="path28" />
		<path
   d="M346.12,3.84h2.29v3.11h0.98l2.21-3.11h2.53l-2.7,3.84l2.94,4.5h-2.62l-2.13-3.27h-1.23v3.27h-2.29V3.84H346.12z"
   id="path30" />
		<path
   d="M356.83,5.8h-2.78V3.84h7.85V5.8h-2.78v6.38h-2.29V5.8z"
   id="path32" />
		<path
   d="M365.82,12.18h-1.8l-2.21-8.34h2.37l1.64,6.38h0.65l1.8-6.38h2.37l-3.35,11.45h-2.37L365.82,12.18z"
   id="path34" />
		<path
   d="M371.21,3.84h2.29V4.9h0.08c0.17-0.24,0.39-0.46,0.64-0.65c0.22-0.16,0.49-0.31,0.81-0.45s0.71-0.2,1.17-0.2    c0.53,0,1.03,0.1,1.5,0.31c0.46,0.21,0.87,0.5,1.22,0.88s0.62,0.84,0.83,1.39s0.3,1.16,0.3,1.83s-0.1,1.29-0.3,1.83    c-0.2,0.55-0.48,1.01-0.83,1.39c-0.35,0.38-0.75,0.68-1.22,0.88s-0.96,0.31-1.5,0.31c-0.46,0-0.85-0.07-1.17-0.2    c-0.32-0.14-0.59-0.29-0.81-0.45c-0.25-0.2-0.46-0.41-0.64-0.65h-0.08v4.17h-2.29V3.84z M375.63,10.46c0.58,0,1.06-0.21,1.46-0.64    c0.39-0.43,0.59-1.03,0.59-1.82c0-0.78-0.2-1.39-0.59-1.82c-0.39-0.42-0.88-0.64-1.46-0.64c-0.62,0-1.13,0.21-1.53,0.64    s-0.6,1.03-0.6,1.82s0.2,1.39,0.6,1.82S375.01,10.46,375.63,10.46z"
   id="path36" />
		<path
   d="M381.11,3.84h2.29v3.11h3.52V3.84h2.29v8.34h-2.29V8.91h-3.52v3.27h-2.29V3.84z"
   id="path38" />
		<path
   d="M390.67,3.84h2.29v2.62h1.55c0.51,0,0.98,0.08,1.39,0.23s0.77,0.36,1.05,0.62c0.29,0.26,0.51,0.56,0.67,0.91    c0.16,0.34,0.24,0.71,0.24,1.1s-0.08,0.76-0.24,1.1s-0.38,0.65-0.67,0.91s-0.64,0.47-1.05,0.62c-0.41,0.15-0.88,0.23-1.39,0.23    h-3.84V3.84z M394.35,10.3c0.37,0,0.65-0.09,0.85-0.28s0.29-0.42,0.29-0.7s-0.1-0.52-0.29-0.7c-0.2-0.19-0.48-0.28-0.85-0.28    h-1.39v1.96C392.96,10.3,394.35,10.3,394.35,10.3z M398.68,3.84h2.29v8.34h-2.29V3.84z"
   id="path40" />
		<path
   d="M404,7.93l-2.29-4.09h2.53l1.55,3.11h0.41l1.55-3.11h2.53L408,7.93l2.45,4.25h-2.53l-1.72-3.27h-0.41l-1.72,3.27h-2.53    L404,7.93z"
   id="path42" />
		<path
   d="M212.53,20.19h2.29v3.6l-0.08,1.47h0.16l3.35-5.07h2.45v8.34h-2.29v-3.6l0.08-1.47h-0.16l-3.35,5.07h-2.45V20.19z"
   id="path44" />
		<path
   d="M229.54,28.78c-0.65,0-1.26-0.11-1.82-0.34c-0.56-0.23-1.05-0.54-1.46-0.94s-0.73-0.87-0.96-1.41    c-0.23-0.54-0.34-1.11-0.34-1.72c0-0.61,0.11-1.19,0.34-1.72c0.23-0.54,0.55-1.01,0.96-1.41s0.89-0.71,1.46-0.94    c0.56-0.23,1.17-0.34,1.82-0.34c0.65,0,1.26,0.11,1.81,0.34c0.56,0.23,1.04,0.54,1.45,0.94s0.73,0.87,0.96,1.41    c0.23,0.54,0.35,1.11,0.35,1.72c0,0.61-0.12,1.19-0.35,1.72c-0.23,0.54-0.56,1.01-0.96,1.41c-0.41,0.4-0.89,0.71-1.45,0.94    C230.8,28.66,230.19,28.78,229.54,28.78z M229.54,26.82c0.3,0,0.59-0.06,0.86-0.18s0.5-0.29,0.7-0.5s0.36-0.47,0.47-0.77    c0.11-0.3,0.17-0.63,0.17-1.01c0-0.37-0.06-0.71-0.17-1.01c-0.11-0.3-0.27-0.56-0.47-0.77c-0.2-0.21-0.44-0.38-0.7-0.5    c-0.27-0.12-0.55-0.18-0.86-0.18s-0.59,0.06-0.86,0.18s-0.5,0.29-0.7,0.5s-0.36,0.47-0.47,0.77c-0.11,0.3-0.17,0.64-0.17,1.01    s0.06,0.71,0.17,1.01c0.11,0.3,0.27,0.56,0.47,0.77c0.2,0.21,0.44,0.38,0.7,0.5C228.95,26.76,229.23,26.82,229.54,26.82z"
   id="path46" />
		<path
   d="M239.1,28.78c-0.61,0-1.18-0.11-1.71-0.34c-0.53-0.23-0.99-0.56-1.37-0.99c-0.39-0.43-0.69-0.95-0.92-1.57    c-0.22-0.62-0.34-1.31-0.34-2.08c0-2.29,0.48-3.98,1.43-5.07s2.33-1.64,4.13-1.64h2.37v1.96h-2.13c-1.16,0-2.02,0.26-2.59,0.79    c-0.57,0.53-0.88,1.25-0.92,2.15h0.08c0.15-0.21,0.35-0.4,0.59-0.57c0.21-0.14,0.47-0.27,0.78-0.39c0.32-0.12,0.7-0.18,1.16-0.18    c0.53,0,1.03,0.1,1.49,0.29s0.86,0.46,1.19,0.8c0.34,0.34,0.6,0.75,0.79,1.22c0.19,0.47,0.29,0.98,0.29,1.54    c0,0.58-0.1,1.11-0.31,1.61c-0.21,0.5-0.5,0.93-0.87,1.29c-0.38,0.37-0.83,0.65-1.37,0.87C240.35,28.67,239.76,28.78,239.1,28.78z     M239.1,26.82c0.58,0,1.05-0.19,1.41-0.57s0.55-0.9,0.55-1.55c0-0.62-0.18-1.12-0.55-1.49c-0.37-0.37-0.84-0.56-1.41-0.56    c-0.58,0-1.05,0.19-1.41,0.56c-0.37,0.37-0.55,0.87-0.55,1.49c0,0.65,0.18,1.17,0.55,1.55C238.05,26.62,238.52,26.82,239.1,26.82z    "
   id="path48" />
		<path
   d="M244.42,20.19h2.29v1.06h0.08c0.17-0.24,0.39-0.46,0.64-0.65c0.22-0.16,0.49-0.31,0.81-0.45c0.32-0.14,0.71-0.2,1.17-0.2    c0.53,0,1.03,0.1,1.5,0.31c0.46,0.21,0.87,0.5,1.22,0.88s0.62,0.84,0.83,1.39c0.2,0.55,0.3,1.16,0.3,1.83    c0,0.68-0.1,1.29-0.3,1.83c-0.2,0.55-0.48,1.01-0.83,1.39s-0.75,0.68-1.22,0.88c-0.46,0.21-0.96,0.31-1.5,0.31    c-0.46,0-0.85-0.07-1.17-0.2c-0.32-0.14-0.59-0.29-0.81-0.45c-0.25-0.2-0.46-0.41-0.64-0.65h-0.08v4.17h-2.29V20.19z     M248.83,26.82c0.58,0,1.06-0.21,1.46-0.64c0.39-0.43,0.59-1.03,0.59-1.82c0-0.78-0.2-1.39-0.59-1.82    c-0.39-0.42-0.88-0.64-1.46-0.64c-0.62,0-1.13,0.21-1.53,0.64s-0.6,1.03-0.6,1.82c0,0.79,0.2,1.39,0.6,1.82    C247.7,26.6,248.21,26.82,248.83,26.82z"
   id="path50" />
		<path
   d="M257.74,28.78c-0.53,0-1.03-0.1-1.5-0.31c-0.46-0.21-0.87-0.5-1.22-0.88s-0.62-0.84-0.83-1.39    c-0.2-0.54-0.3-1.16-0.3-1.83c0-0.68,0.1-1.29,0.3-1.83c0.2-0.55,0.48-1.01,0.83-1.39s0.75-0.68,1.22-0.88    c0.46-0.21,0.96-0.31,1.5-0.31c0.46,0,0.85,0.07,1.17,0.2c0.32,0.14,0.59,0.29,0.81,0.45c0.25,0.2,0.46,0.41,0.64,0.65h0.08V20.2    h2.29v8.34h-2.29v-1.06h-0.08c-0.17,0.24-0.39,0.46-0.64,0.65c-0.22,0.16-0.49,0.31-0.81,0.45    C258.59,28.71,258.2,28.78,257.74,28.78z M258.31,26.82c0.62,0,1.13-0.21,1.53-0.64s0.6-1.03,0.6-1.82c0-0.78-0.2-1.39-0.6-1.82    c-0.4-0.42-0.91-0.64-1.53-0.64c-0.58,0-1.06,0.21-1.46,0.64c-0.39,0.43-0.59,1.03-0.59,1.82c0,0.79,0.2,1.39,0.59,1.82    C257.25,26.6,257.74,26.82,258.31,26.82z"
   id="path52" />
		<path
   d="M267.63,28.78c-0.45,0-0.85-0.04-1.2-0.12s-0.67-0.19-0.94-0.33s-0.51-0.3-0.7-0.47c-0.2-0.17-0.37-0.35-0.51-0.54    c-0.33-0.44-0.54-0.93-0.65-1.47h2.29c0.07,0.21,0.17,0.39,0.31,0.54c0.12,0.13,0.29,0.25,0.51,0.36s0.52,0.16,0.89,0.16    c0.49,0,0.84-0.09,1.06-0.26s0.33-0.39,0.33-0.64c0-0.28-0.1-0.5-0.29-0.66c-0.2-0.16-0.56-0.24-1.1-0.24h-1.06v-1.64h0.98    c0.49,0,0.83-0.08,1.02-0.24s0.29-0.38,0.29-0.66c0-0.21-0.11-0.4-0.33-0.56c-0.22-0.17-0.57-0.25-1.06-0.25    c-0.32,0-0.56,0.05-0.74,0.14s-0.32,0.2-0.42,0.32c-0.12,0.13-0.2,0.28-0.23,0.44h-2.29c0.13-0.5,0.35-0.95,0.67-1.34    c0.13-0.16,0.29-0.33,0.48-0.49s0.41-0.31,0.67-0.44c0.26-0.13,0.55-0.23,0.88-0.31c0.33-0.08,0.71-0.11,1.14-0.11    c0.59,0,1.1,0.07,1.55,0.2c0.44,0.13,0.81,0.31,1.1,0.53c0.29,0.22,0.51,0.48,0.65,0.76c0.14,0.28,0.21,0.58,0.21,0.88    c0,0.36-0.08,0.65-0.23,0.88c-0.15,0.23-0.32,0.4-0.51,0.52c-0.22,0.14-0.46,0.25-0.74,0.31v0.08c0.3,0.08,0.58,0.2,0.82,0.38    c0.21,0.15,0.4,0.36,0.56,0.63c0.17,0.27,0.25,0.61,0.25,1.04c0,0.35-0.07,0.68-0.2,1c-0.14,0.32-0.35,0.59-0.65,0.83    s-0.68,0.43-1.14,0.57C268.85,28.71,268.29,28.78,267.63,28.78z"
   id="path54" />
		<path
   d="M276.46,28.78c-0.65,0-1.26-0.11-1.82-0.34s-1.05-0.54-1.46-0.94s-0.73-0.87-0.96-1.41c-0.23-0.54-0.34-1.11-0.34-1.72    c0-0.61,0.11-1.19,0.34-1.72c0.23-0.54,0.55-1.01,0.96-1.41s0.89-0.71,1.46-0.94c0.56-0.23,1.17-0.34,1.82-0.34    s1.26,0.11,1.81,0.34c0.56,0.23,1.04,0.54,1.45,0.94s0.73,0.87,0.96,1.41c0.23,0.54,0.35,1.11,0.35,1.72    c0,0.61-0.12,1.19-0.35,1.72c-0.23,0.54-0.56,1.01-0.96,1.41c-0.41,0.4-0.89,0.71-1.45,0.94    C277.72,28.66,277.12,28.78,276.46,28.78z M276.46,26.82c0.3,0,0.59-0.06,0.86-0.18s0.5-0.29,0.7-0.5s0.36-0.47,0.47-0.77    c0.11-0.3,0.17-0.63,0.17-1.01c0-0.37-0.06-0.71-0.17-1.01c-0.11-0.3-0.27-0.56-0.47-0.77c-0.2-0.21-0.44-0.38-0.7-0.5    c-0.27-0.12-0.55-0.18-0.86-0.18s-0.59,0.06-0.86,0.18s-0.5,0.29-0.7,0.5s-0.36,0.47-0.47,0.77c-0.11,0.3-0.17,0.64-0.17,1.01    s0.06,0.71,0.17,1.01c0.11,0.3,0.27,0.56,0.47,0.77c0.2,0.21,0.44,0.38,0.7,0.5C275.87,26.76,276.16,26.82,276.46,26.82z"
   id="path56" />
		<path
   d="M282.02,20.19h4.58c0.45,0,0.84,0.05,1.18,0.16c0.34,0.1,0.62,0.25,0.84,0.43c0.22,0.19,0.39,0.4,0.51,0.65    c0.11,0.25,0.17,0.52,0.17,0.8c0,0.39-0.07,0.71-0.22,0.94c-0.15,0.23-0.31,0.42-0.48,0.55c-0.2,0.15-0.42,0.26-0.69,0.31v0.08    c0.33,0.07,0.63,0.18,0.9,0.34c0.22,0.15,0.42,0.36,0.61,0.62c0.19,0.26,0.29,0.62,0.29,1.08c0,0.34-0.07,0.65-0.2,0.94    c-0.14,0.29-0.34,0.54-0.6,0.75s-0.59,0.38-0.97,0.5c-0.39,0.12-0.83,0.18-1.33,0.18h-4.58L282.02,20.19L282.02,20.19z     M286.27,23.38c0.25,0,0.45-0.07,0.6-0.21s0.22-0.32,0.22-0.52c0-0.21-0.07-0.38-0.22-0.52c-0.15-0.14-0.35-0.21-0.6-0.21h-1.96    v1.47h1.96V23.38z M286.44,26.82c0.28,0,0.52-0.09,0.7-0.26c0.19-0.17,0.28-0.39,0.28-0.64s-0.09-0.46-0.28-0.64    c-0.19-0.17-0.42-0.26-0.7-0.26h-2.13v1.8H286.44z"
   id="path58" />
		<path
   d="M294.2,28.78c-0.53,0-1.03-0.1-1.5-0.31c-0.46-0.21-0.87-0.5-1.22-0.88s-0.62-0.84-0.83-1.39c-0.2-0.54-0.3-1.16-0.3-1.83    c0-0.68,0.1-1.29,0.3-1.83c0.2-0.55,0.48-1.01,0.83-1.39c0.35-0.38,0.75-0.68,1.22-0.88c0.46-0.21,0.96-0.31,1.5-0.31    c0.46,0,0.85,0.07,1.17,0.2c0.32,0.14,0.59,0.29,0.81,0.45c0.25,0.2,0.46,0.41,0.64,0.65h0.08V20.2h2.29v8.34h-2.29v-1.06h-0.08    c-0.17,0.24-0.39,0.46-0.64,0.65c-0.22,0.16-0.49,0.31-0.81,0.45C295.05,28.71,294.66,28.78,294.2,28.78z M294.78,26.82    c0.62,0,1.13-0.21,1.53-0.64s0.6-1.03,0.6-1.82c0-0.78-0.2-1.39-0.6-1.82c-0.4-0.42-0.91-0.64-1.53-0.64    c-0.58,0-1.06,0.21-1.46,0.64c-0.39,0.43-0.59,1.03-0.59,1.82c0,0.79,0.2,1.39,0.59,1.82C293.71,26.6,294.2,26.82,294.78,26.82z"
   id="path60" />
		<path
   d="M302.62,22.16h-2.78V20.2h7.85v1.96h-2.78v6.38h-2.29V22.16z"
   id="path62" />
		<path
   d="M312.35,28.78c-0.63,0-1.22-0.11-1.77-0.34s-1.03-0.54-1.43-0.94s-0.72-0.87-0.95-1.41c-0.23-0.54-0.34-1.11-0.34-1.72    c0-0.61,0.11-1.19,0.34-1.72c0.23-0.54,0.55-1.01,0.95-1.41c0.4-0.4,0.88-0.71,1.43-0.94s1.14-0.34,1.77-0.34    c0.65,0,1.25,0.11,1.79,0.34s1.01,0.55,1.4,0.95c0.39,0.4,0.69,0.87,0.91,1.41c0.21,0.53,0.32,1.11,0.32,1.72v0.49h-6.54    c0.04,0.26,0.13,0.51,0.25,0.75c0.13,0.24,0.28,0.45,0.47,0.63c0.19,0.18,0.41,0.32,0.65,0.43c0.24,0.1,0.49,0.16,0.75,0.16    c0.37,0,0.67-0.05,0.91-0.16c0.23-0.1,0.43-0.22,0.58-0.34c0.16-0.14,0.29-0.3,0.39-0.49h2.45c-0.17,0.55-0.45,1.04-0.82,1.47    c-0.16,0.19-0.35,0.37-0.57,0.54s-0.47,0.33-0.75,0.47s-0.61,0.25-0.97,0.33S312.8,28.78,312.35,28.78z M314.31,23.46    c-0.04-0.21-0.12-0.4-0.23-0.59c-0.11-0.19-0.25-0.35-0.42-0.49s-0.37-0.26-0.59-0.34c-0.22-0.09-0.47-0.13-0.73-0.13    c-0.53,0-0.98,0.16-1.33,0.47c-0.35,0.31-0.59,0.67-0.71,1.09h4.01V23.46z"
   id="path64" />
		<path
   d="M319.14,20.19h4.42l2.21,8.34h-2.29l-1.72-6.38h-0.82l-1.72,6.38h-2.29L319.14,20.19z"
   id="path66" />
		<path
   d="M326.33,20.19h2.29v2.62h1.88c0.51,0,0.98,0.08,1.39,0.23s0.77,0.36,1.05,0.62c0.29,0.26,0.51,0.56,0.67,0.91    c0.16,0.34,0.24,0.71,0.24,1.1s-0.08,0.76-0.24,1.1s-0.38,0.65-0.67,0.91s-0.64,0.47-1.05,0.62c-0.41,0.15-0.88,0.23-1.39,0.23    h-4.17V20.19z M330.34,26.65c0.37,0,0.65-0.09,0.85-0.28s0.29-0.42,0.29-0.7s-0.1-0.52-0.29-0.7c-0.2-0.19-0.48-0.28-0.85-0.28    h-1.72v1.96C328.62,26.65,330.34,26.65,330.34,26.65z"
   id="path68" />
		<path
   d="M334.75,20.19h2.29v3.11h3.52v-3.11h2.29v8.34h-2.29v-3.27h-3.52v3.27h-2.29V20.19z"
   id="path70" />
		<path
   d="M344.32,20.19h2.29v2.62h1.55c0.51,0,0.98,0.08,1.39,0.23s0.77,0.36,1.05,0.62c0.29,0.26,0.51,0.56,0.67,0.91    c0.16,0.34,0.24,0.71,0.24,1.1s-0.08,0.76-0.24,1.1s-0.38,0.65-0.67,0.91s-0.64,0.47-1.05,0.62c-0.41,0.15-0.88,0.23-1.39,0.23    h-3.84V20.19z M348,26.65c0.37,0,0.65-0.09,0.85-0.28s0.29-0.42,0.29-0.7s-0.1-0.52-0.29-0.7c-0.2-0.19-0.48-0.28-0.85-0.28h-1.39    v1.96C346.61,26.65,348,26.65,348,26.65z M352.33,20.19h2.29v8.34h-2.29V20.19z"
   id="path72" />
		<path
   d="M357.64,24.28l-2.29-4.09h2.53l1.55,3.11h0.41l1.55-3.11h2.53l-2.29,4.09l2.45,4.25h-2.53l-1.72-3.27h-0.41l-1.72,3.27    h-2.53L357.64,24.28z"
   id="path74" />
		<path
   d="M368.93,20.19h8.01v8.34h-2.29v-6.38h-3.43v6.38h-2.29V20.19z"
   id="path76" />
		<path
   d="M378.41,20.19h2.29v1.06h0.08c0.17-0.24,0.39-0.46,0.64-0.65c0.22-0.16,0.49-0.31,0.81-0.45c0.32-0.14,0.71-0.2,1.17-0.2    c0.53,0,1.03,0.1,1.5,0.31c0.46,0.21,0.87,0.5,1.22,0.88s0.62,0.84,0.83,1.39c0.2,0.55,0.3,1.16,0.3,1.83    c0,0.68-0.1,1.29-0.3,1.83c-0.2,0.55-0.48,1.01-0.83,1.39c-0.35,0.38-0.75,0.68-1.22,0.88c-0.46,0.21-0.96,0.31-1.5,0.31    c-0.46,0-0.85-0.07-1.17-0.2c-0.32-0.14-0.59-0.29-0.81-0.45c-0.25-0.2-0.46-0.41-0.64-0.65h-0.08v4.17h-2.29V20.19z     M382.82,26.82c0.58,0,1.06-0.21,1.46-0.64c0.39-0.43,0.59-1.03,0.59-1.82c0-0.78-0.2-1.39-0.59-1.82    c-0.39-0.42-0.88-0.64-1.46-0.64c-0.62,0-1.13,0.21-1.53,0.64s-0.6,1.03-0.6,1.82c0,0.79,0.2,1.39,0.6,1.82    C381.69,26.6,382.2,26.82,382.82,26.82z"
   id="path78" />
		<path
   d="M392.39,28.78c-0.65,0-1.26-0.11-1.82-0.34s-1.05-0.54-1.46-0.94s-0.73-0.87-0.96-1.41c-0.23-0.54-0.34-1.11-0.34-1.72    c0-0.61,0.11-1.19,0.34-1.72c0.23-0.54,0.55-1.01,0.96-1.41s0.89-0.71,1.46-0.94c0.56-0.23,1.17-0.34,1.82-0.34    s1.26,0.11,1.81,0.34c0.56,0.23,1.04,0.54,1.45,0.94s0.73,0.87,0.96,1.41c0.23,0.54,0.35,1.11,0.35,1.72    c0,0.61-0.12,1.19-0.35,1.72c-0.23,0.54-0.56,1.01-0.96,1.41c-0.41,0.4-0.89,0.71-1.45,0.94    C393.65,28.66,393.04,28.78,392.39,28.78z M392.39,26.82c0.3,0,0.59-0.06,0.86-0.18s0.5-0.29,0.7-0.5s0.36-0.47,0.47-0.77    c0.11-0.3,0.17-0.63,0.17-1.01c0-0.37-0.06-0.71-0.17-1.01c-0.11-0.3-0.27-0.56-0.47-0.77c-0.2-0.21-0.44-0.38-0.7-0.5    c-0.27-0.12-0.55-0.18-0.86-0.18s-0.59,0.06-0.86,0.18s-0.5,0.29-0.7,0.5s-0.36,0.47-0.47,0.77c-0.11,0.3-0.17,0.64-0.17,1.01    s0.06,0.71,0.17,1.01c0.11,0.3,0.27,0.56,0.47,0.77c0.2,0.21,0.44,0.38,0.7,0.5C391.8,26.76,392.08,26.82,392.39,26.82z"
   id="path80" />
		<path
   d="M397.95,20.19h6.3v1.96h-4.01v6.38h-2.29L397.95,20.19L397.95,20.19z"
   id="path82" />
		<path
   d="M404.98,20.19h2.29v1.06h0.08c0.17-0.24,0.39-0.46,0.64-0.65c0.22-0.16,0.49-0.31,0.81-0.45c0.32-0.14,0.71-0.2,1.17-0.2    c0.53,0,1.03,0.1,1.5,0.31c0.46,0.21,0.87,0.5,1.22,0.88s0.62,0.84,0.83,1.39c0.2,0.55,0.3,1.16,0.3,1.83    c0,0.68-0.1,1.29-0.3,1.83c-0.2,0.55-0.48,1.01-0.83,1.39c-0.35,0.38-0.75,0.68-1.22,0.88c-0.46,0.21-0.96,0.31-1.5,0.31    c-0.46,0-0.85-0.07-1.17-0.2c-0.32-0.14-0.59-0.29-0.81-0.45c-0.25-0.2-0.46-0.41-0.64-0.65h-0.08v4.17h-2.29V20.19z     M409.39,26.82c0.58,0,1.06-0.21,1.46-0.64c0.39-0.43,0.59-1.03,0.59-1.82c0-0.78-0.2-1.39-0.59-1.82    c-0.39-0.42-0.88-0.64-1.46-0.64c-0.62,0-1.13,0.21-1.53,0.64s-0.6,1.03-0.6,1.82c0,0.79,0.2,1.39,0.6,1.82    C408.26,26.6,408.77,26.82,409.39,26.82z"
   id="path84" />
		<path
   d="M418.3,28.78c-0.53,0-1.03-0.1-1.5-0.31c-0.46-0.21-0.87-0.5-1.22-0.88s-0.62-0.84-0.83-1.39c-0.2-0.54-0.3-1.16-0.3-1.83    c0-0.68,0.1-1.29,0.3-1.83c0.2-0.55,0.48-1.01,0.83-1.39c0.35-0.38,0.75-0.68,1.22-0.88c0.46-0.21,0.96-0.31,1.5-0.31    c0.46,0,0.85,0.07,1.17,0.2c0.32,0.14,0.59,0.29,0.81,0.45c0.25,0.2,0.46,0.41,0.64,0.65H421V20.2h2.29v8.34H421v-1.06h-0.08    c-0.17,0.24-0.39,0.46-0.64,0.65c-0.22,0.16-0.49,0.31-0.81,0.45C419.15,28.71,418.76,28.78,418.3,28.78z M418.88,26.82    c0.62,0,1.13-0.21,1.53-0.64s0.6-1.03,0.6-1.82c0-0.78-0.2-1.39-0.6-1.82c-0.4-0.42-0.91-0.64-1.53-0.64    c-0.58,0-1.06,0.21-1.46,0.64c-0.39,0.43-0.59,1.03-0.59,1.82c0,0.79,0.2,1.39,0.59,1.82C417.81,26.6,418.3,26.82,418.88,26.82z"
   id="path86" />
		<path
   d="M424.76,20.19h3.11l1.96,4.5h0.25l1.96-4.5h3.11v8.34h-2.29v-4.17l0.08-1.47h-0.08l-1.8,4.09h-2.21l-1.8-4.09h-0.08    l0.08,1.47v4.17h-2.29L424.76,20.19L424.76,20.19z"
   id="path88" />
		<path
   d="M436.62,20.19h3.11l1.96,4.5h0.25l1.96-4.5h3.1v8.34h-2.29v-4.17l0.08-1.47h-0.08l-1.8,4.09h-2.21l-1.8-4.09h-0.08    l0.08,1.47v4.17h-2.29L436.62,20.19L436.62,20.19z"
   id="path90" />
	</g>
	<g
   id="g110">
		<rect
   y="5.94"
   class="st0"
   width="10.08"
   height="20.16"
   id="rect94" />
		<rect
   x="18.24"
   y="5.94"
   class="st0"
   width="3.36"
   height="20.16"
   id="rect96" />
		<rect
   x="38.82"
   y="5.94"
   class="st1"
   width="10.08"
   height="20.16"
   id="rect98" />
		<rect
   x="63"
   y="5.94"
   class="st1"
   width="3.36"
   height="20.16"
   id="rect100" />
		<rect
   x="119.29"
   y="5.94"
   class="st2"
   width="10.08"
   height="20.16"
   id="rect102" />
		<rect
   x="153.57"
   y="5.94"
   class="st3"
   width="3.36"
   height="20.16"
   id="rect104" />
		<rect
   x="89.95"
   y="5.94"
   class="st4"
   width="20.16"
   height="20.16"
   id="rect106" />
		<rect
   x="174.85"
   y="5.94"
   class="st3"
   width="18.48"
   height="20.16"
   id="rect108" />
	</g>
</g>
</svg>
