<svg width="324" height="31" viewBox="0 0 324 31" fill="none" xmlns="http://www.w3.org/2000/svg">
<path d="M127.956 2.41616C125.754 2.41616 124.197 4.02901 124.192 6.36961C124.187 8.72496 125.754 10.3231 127.961 10.3231H128.193V11.6605H129.114V10.3231H129.34C131.538 10.3231 133.09 8.72005 133.095 6.36469C133.095 4.01426 131.528 2.41616 129.331 2.41616H129.114V1H128.193V2.41616H127.956ZM127.961 3.24226H128.193V9.49697H127.961C126.114 9.49697 125.113 8.21357 125.113 6.38928C125.108 4.5404 126.114 3.24226 127.961 3.24226ZM129.114 3.24226H129.321C131.173 3.24226 132.168 4.53057 132.173 6.36469C132.178 8.21357 131.173 9.49697 129.336 9.49697H129.114V3.24226Z" fill="#8999A8"/>
<path d="M138.08 11.4049C140.041 11.4049 141.411 9.80675 141.411 7.50549C141.411 5.18948 140.041 3.59138 138.08 3.59138C136.12 3.59138 134.75 5.18948 134.75 7.50549C134.75 9.80675 136.12 11.4049 138.08 11.4049ZM138.08 10.6033C136.509 10.6033 135.632 9.19702 135.632 7.50549C135.632 5.81396 136.509 4.38797 138.08 4.38797C139.652 4.38797 140.529 5.81396 140.529 7.50549C140.529 9.19702 139.652 10.6033 138.08 10.6033Z" fill="#8999A8"/>
<path d="M144.213 3.69464H143.336V11.2475H144.213V7.88904H148.213V11.2475H149.09V3.69464H148.213V7.06294H144.213V3.69464Z" fill="#8999A8"/>
<path d="M150.528 13.3963H151.409V11.2475H157.317V13.3963H158.193V10.4214H157.07V3.69464H152.592L152.316 6.85642C152.144 8.81347 151.828 9.68874 151.183 10.4214H150.528V13.3963ZM152.193 10.4214C152.779 9.6199 153.025 8.43976 153.183 6.85642L153.41 4.52073H156.193V10.4214H152.193Z" fill="#8999A8"/>
<path d="M163.949 11.2475H164.87V6.62039H170.595V11.2475H171.516V1.17702H170.595V5.7943H164.87V1.17702H163.949V11.2475Z" fill="#8999A8"/>
<path d="M176.123 11.4196C177.384 11.4196 178.153 10.7214 178.468 10.0526H178.522V11.2475H179.399V6.11883C179.399 4.09293 177.872 3.59138 176.714 3.59138C175.556 3.59138 174.364 4.04868 173.852 5.2829L174.684 5.58286C174.96 4.93378 175.645 4.37813 176.739 4.37813C177.887 4.37813 178.522 5.00754 178.522 6.04016V6.21718C178.522 6.78758 177.813 6.79741 176.542 6.95476C174.832 7.1662 173.635 7.64317 173.635 9.13801C173.635 10.5935 174.748 11.4196 176.123 11.4196ZM176.241 10.6181C175.251 10.6181 174.512 10.092 174.512 9.17735C174.512 8.26274 175.261 7.8792 176.542 7.72185C177.162 7.64809 178.266 7.51041 178.522 7.25963V8.35125C178.522 9.5904 177.64 10.6181 176.241 10.6181Z" fill="#8999A8"/>
<path d="M187.471 3.69464H186.589V10.4214H182.623V3.69464H181.742V11.2475H187.397V13.6914H188.274V10.4165H187.471V3.69464Z" fill="#8999A8"/>
<path d="M191.022 10.0034V3.69464H190.145V11.2475H191.209L195.19 4.9387V11.2475H196.067V3.69464H195.018L191.022 10.0034Z" fill="#8999A8"/>
<path d="M201.324 11.4049C203.285 11.4049 204.654 9.80675 204.654 7.50549C204.654 5.18948 203.285 3.59138 201.324 3.59138C199.363 3.59138 197.993 5.18948 197.993 7.50549C197.993 9.80675 199.363 11.4049 201.324 11.4049ZM201.324 10.6033C199.752 10.6033 198.875 9.19702 198.875 7.50549C198.875 5.81396 199.752 4.38797 201.324 4.38797C202.895 4.38797 203.772 5.81396 203.772 7.50549C203.772 9.19702 202.895 10.6033 201.324 10.6033Z" fill="#8999A8"/>
<path d="M207.456 3.69464H206.579V11.2475H207.456V7.88904H211.457V11.2475H212.334V3.69464H211.457V7.06294H207.456V3.69464Z" fill="#8999A8"/>
<path d="M216.781 11.4196C218.042 11.4196 218.811 10.7214 219.126 10.0526H219.181V11.2475H220.057V6.11883C220.057 4.09293 218.53 3.59138 217.372 3.59138C216.215 3.59138 215.022 4.04868 214.51 5.2829L215.343 5.58286C215.619 4.93378 216.303 4.37813 217.397 4.37813C218.545 4.37813 219.181 5.00754 219.181 6.04016V6.21718C219.181 6.78758 218.471 6.79741 217.2 6.95476C215.49 7.1662 214.293 7.64317 214.293 9.13801C214.293 10.5935 215.407 11.4196 216.781 11.4196ZM216.899 10.6181C215.909 10.6181 215.17 10.092 215.17 9.17735C215.17 8.26274 215.919 7.8792 217.2 7.72185C217.821 7.64809 218.924 7.51041 219.181 7.25963V8.35125C219.181 9.5904 218.299 10.6181 216.899 10.6181Z" fill="#8999A8"/>
<path d="M221.646 11.2475H221.962C223.661 11.2475 223.972 9.98377 224.09 7.52516L224.233 4.52073H227.327V11.2475H228.209V3.69464H223.4L223.238 7.23013C223.124 9.73299 222.962 10.4214 221.883 10.4214H221.646V11.2475Z" fill="#8999A8"/>
<path d="M231.41 6.61056V3.69464H230.533V11.2475H233.474C235.174 11.2475 236.139 10.3083 236.139 8.9069C236.139 7.49566 235.179 6.61056 233.474 6.61056H231.41ZM231.41 7.43665H233.474C234.543 7.43665 235.262 7.98738 235.262 8.94624C235.262 9.89526 234.543 10.4214 233.474 10.4214H231.41V7.43665Z" fill="#8999A8"/>
<path d="M238.943 3.69464H238.066V11.2475H238.943V7.88904H242.943V11.2475H243.82V3.69464H242.943V7.06294H238.943V3.69464Z" fill="#8999A8"/>
<path d="M249.095 11.4049C251.056 11.4049 252.426 9.80675 252.426 7.50549C252.426 5.18948 251.056 3.59138 249.095 3.59138C247.134 3.59138 245.765 5.18948 245.765 7.50549C245.765 9.80675 247.134 11.4049 249.095 11.4049ZM249.095 10.6033C247.524 10.6033 246.647 9.19702 246.647 7.50549C246.647 5.81396 247.524 4.38797 249.095 4.38797C250.667 4.38797 251.544 5.81396 251.544 7.50549C251.544 9.19702 250.667 10.6033 249.095 10.6033Z" fill="#8999A8"/>
<path d="M255.228 10.0034V3.69464H254.351V11.2475H255.415L259.396 4.9387V11.2475H260.272V3.69464H259.223L255.228 10.0034ZM258.218 1.17702C258.218 1.69333 257.942 2.08671 257.312 2.08671C256.681 2.08671 256.42 1.69333 256.42 1.17702H255.592C255.592 2.11621 256.252 2.75545 257.312 2.75545C258.381 2.75545 259.046 2.11621 259.046 1.17702H258.218Z" fill="#8999A8"/>
<path d="M124 21.8294H126.532V28.5561H127.409V21.8294H129.912V21.0033H124V21.8294Z" fill="#8999A8"/>
<path d="M134.432 28.7135C135.95 28.7135 136.969 27.8923 137.314 26.9433L136.482 26.6728C136.191 27.3514 135.506 27.912 134.432 27.912C132.885 27.912 131.905 26.7859 131.865 25.0403H137.501V24.6076C137.501 22.0851 135.94 20.9 134.299 20.9C132.338 20.9 130.984 22.5375 130.984 24.824C130.984 27.1154 132.314 28.7135 134.432 28.7135ZM131.87 24.2683C131.964 22.862 132.915 21.6966 134.299 21.6966C135.654 21.6966 136.605 22.8128 136.605 24.2683H131.87Z" fill="#8999A8"/>
<path d="M139.773 21.0033H138.758L141.162 24.7797L138.758 28.5561H139.773L141.724 25.4386L143.675 28.5561H144.694L142.261 24.7797L144.694 21.0033H143.675L141.724 24.2241L139.773 21.0033Z" fill="#8999A8"/>
<path d="M147.41 21.0033H146.533V28.5561H147.41V25.1977H151.411V28.5561H152.288V21.0033H151.411V24.3716H147.41V21.0033Z" fill="#8999A8"/>
<path d="M157.563 28.7135C159.524 28.7135 160.893 27.1154 160.893 24.8141C160.893 22.4981 159.524 20.9 157.563 20.9C155.602 20.9 154.232 22.4981 154.232 24.8141C154.232 27.1154 155.602 28.7135 157.563 28.7135ZM157.563 27.912C155.991 27.912 155.114 26.5057 155.114 24.8141C155.114 23.1226 155.991 21.6966 157.563 21.6966C159.134 21.6966 160.011 23.1226 160.011 24.8141C160.011 26.5057 159.134 27.912 157.563 27.912Z" fill="#8999A8"/>
<path d="M162.074 28.5561H162.39C164.089 28.5561 164.4 27.2924 164.518 24.8338L164.661 21.8294H167.755V28.5561H168.637V21.0033H163.828L163.666 24.5388C163.552 27.0416 163.39 27.73 162.311 27.73H162.074V28.5561Z" fill="#8999A8"/>
<path d="M171.562 28.8954L172.069 28.1431C172.582 28.507 173.207 28.7086 173.902 28.7086C175.863 28.7086 177.233 27.1105 177.233 24.8092C177.233 23.6291 176.878 22.6309 176.267 21.9425L176.833 21.1016L176.242 20.7033L175.73 21.4606C175.217 21.0967 174.597 20.8951 173.902 20.8951C171.941 20.8951 170.572 22.4932 170.572 24.8092C170.572 25.9844 170.926 26.9728 171.537 27.6612L170.971 28.4971L171.562 28.8954ZM173.902 27.9071C173.36 27.9071 172.907 27.7399 172.537 27.4547L175.764 22.685C176.149 23.2455 176.351 23.9979 176.351 24.8092C176.351 26.5007 175.474 27.9071 173.902 27.9071ZM172.035 26.9187C171.656 26.3631 171.454 25.6206 171.454 24.8092C171.454 23.1177 172.33 21.6917 173.902 21.6917C174.439 21.6917 174.897 21.8589 175.267 22.149L172.035 26.9187Z" fill="#8999A8"/>
<path d="M183.656 21.0033H179.158V28.5561H180.035V21.8294H183.656V21.0033Z" fill="#8999A8"/>
<path d="M186.375 27.3121V21.0033H185.498V28.5561H186.562L190.543 22.2473V28.5561H191.42V21.0033H190.371L186.375 27.3121Z" fill="#8999A8"/>
<path d="M199.317 21.0033H198.436V24.9272C197.8 25.1239 197.169 25.2468 196.455 25.2468C195.337 25.2468 194.613 24.701 194.613 23.4422V20.9787H193.736V23.4422C193.736 25.2173 194.765 26.068 196.465 26.0729C197.184 26.0729 197.775 25.9648 198.436 25.7582V28.5561H199.317V21.0033Z" fill="#8999A8"/>
<path d="M204.707 28.7135C206.225 28.7135 207.244 27.8923 207.589 26.9433L206.757 26.6728C206.466 27.3514 205.781 27.912 204.707 27.912C203.16 27.912 202.18 26.7859 202.14 25.0403H207.777V24.6076C207.777 22.0851 206.215 20.9 204.574 20.9C202.613 20.9 201.259 22.5375 201.259 24.824C201.259 27.1154 202.589 28.7135 204.707 28.7135ZM202.145 24.2683C202.239 22.862 203.19 21.6966 204.574 21.6966C205.929 21.6966 206.88 22.8128 206.88 24.2683H202.145Z" fill="#8999A8"/>
<path d="M212.665 28.7135C214.242 28.7135 215.35 27.7202 215.552 26.3532H214.665C214.463 27.317 213.67 27.912 212.665 27.912C211.182 27.912 210.202 26.6237 210.202 24.7846C210.202 22.9554 211.212 21.6966 212.665 21.6966C213.744 21.6966 214.473 22.3899 214.66 23.2455H215.547C215.34 21.8441 214.168 20.9 212.65 20.9C210.67 20.9 209.32 22.5424 209.32 24.8141C209.32 27.0662 210.63 28.7135 212.665 28.7135Z" fill="#8999A8"/>
<path d="M217.432 28.5561H218.308V25.2272H219.402L222.013 28.5561H223.146L220.043 24.6371L223.077 21.0033H221.944L219.131 24.4011H218.308V21.0033H217.432V28.5561Z" fill="#8999A8"/>
<path d="M227.215 28.7135C229.175 28.7135 230.545 27.1154 230.545 24.8141C230.545 22.4981 229.175 20.9 227.215 20.9C225.254 20.9 223.884 22.4981 223.884 24.8141C223.884 27.1154 225.254 28.7135 227.215 28.7135ZM227.215 27.912C225.643 27.912 224.766 26.5057 224.766 24.8141C224.766 23.1226 225.643 21.6966 227.215 21.6966C228.786 21.6966 229.663 23.1226 229.663 24.8141C229.663 26.5057 228.786 27.912 227.215 27.912Z" fill="#8999A8"/>
<path d="M233.347 27.3121V21.0033H232.47V28.5561H233.534L237.515 22.2473V28.5561H238.392V21.0033H237.343L233.347 27.3121ZM236.338 18.4857C236.338 19.002 236.062 19.3953 235.431 19.3953C234.8 19.3953 234.539 19.002 234.539 18.4857H233.712C233.712 19.4248 234.372 20.0641 235.431 20.0641C236.5 20.0641 237.165 19.4248 237.165 18.4857H236.338Z" fill="#8999A8"/>
<path d="M245.486 27.3121V21.0033H244.609V28.5561H245.674L249.654 22.2473V28.5561H250.531V21.0033H249.482L245.486 27.3121Z" fill="#8999A8"/>
<path d="M253.724 21.0033H252.847V28.5561H253.724V25.1977H257.724V28.5561H258.601V21.0033H257.724V24.3716H253.724V21.0033Z" fill="#8999A8"/>
<path d="M261.812 27.3121V21.0033H260.935V28.5561H261.999L265.98 22.2473V28.5561H266.857V21.0033H265.808L261.812 27.3121Z" fill="#8999A8"/>
<path d="M274.912 21.0033H274.03V27.73H270.064V21.0033H269.182V28.5561H274.838V31H275.715V27.7251H274.912V21.0033Z" fill="#8999A8"/>
<path d="M278.463 27.3121V21.0033H277.586V28.5561H278.65L282.631 22.2473V28.5561H283.508V21.0033H282.458L278.463 27.3121Z" fill="#8999A8"/>
<path d="M287.937 28.7282C289.198 28.7282 289.967 28.03 290.282 27.3613H290.336V28.5561H291.213V23.4275C291.213 21.4016 289.686 20.9 288.528 20.9C287.37 20.9 286.178 21.3573 285.666 22.5915L286.498 22.8915C286.774 22.2424 287.459 21.6868 288.553 21.6868C289.701 21.6868 290.336 22.3162 290.336 23.3488V23.5258C290.336 24.0962 289.627 24.106 288.356 24.2634C286.646 24.4748 285.449 24.9518 285.449 26.4466C285.449 27.9021 286.562 28.7282 287.937 28.7282ZM288.055 27.9267C287.065 27.9267 286.326 27.4006 286.326 26.486C286.326 25.5714 287.075 25.1878 288.356 25.0305C288.976 24.9567 290.08 24.819 290.336 24.5683V25.6599C290.336 26.899 289.454 27.9267 288.055 27.9267Z" fill="#8999A8"/>
<path d="M292.487 21.8294H295.019V28.5561H295.896V21.8294H298.399V21.0033H292.487V21.8294Z" fill="#8999A8"/>
<path d="M301.129 27.3121V21.0033H300.252V28.5561H301.316L305.297 22.2473V28.5561H306.174V21.0033H305.125L301.129 27.3121Z" fill="#8999A8"/>
<path d="M308.49 28.5561H311.904C313.372 28.5561 314.303 27.6907 314.303 26.5106C314.303 25.3944 313.51 24.7305 312.638 24.5781C313.505 24.3568 314.072 23.8307 314.072 22.9308C314.072 21.7556 313.081 21.0033 311.47 21.0033H308.49V28.5561ZM309.327 27.7448V25.0403H312.002C312.855 25.0403 313.406 25.5911 313.406 26.4368C313.406 27.2334 312.825 27.7448 311.904 27.7448H309.327ZM309.327 24.2634V21.8146H311.47C312.554 21.8146 313.19 22.2473 313.19 22.9849C313.195 23.7668 312.544 24.2634 311.524 24.2634H309.327Z" fill="#8999A8"/>
<path d="M317.117 23.9192V21.0033H316.241V28.5561H319.182C320.881 28.5561 321.847 27.6169 321.847 26.2155C321.847 24.8043 320.886 23.9192 319.182 23.9192H317.117ZM317.117 24.7453H319.182C320.251 24.7453 320.97 25.296 320.97 26.2549C320.97 27.2039 320.251 27.73 319.182 27.73H317.117V24.7453ZM323.118 28.5561H324V21.0033H323.118V28.5561Z" fill="#8999A8"/>
<path d="M24.6667 2.17969H30.2288C32.1634 2.17969 33.7353 3.75391 33.7353 5.69141V24.9453C33.7353 26.7617 32.1634 28.3359 30.3497 28.3359H24.7876C22.853 28.3359 21.2811 26.7617 21.2811 24.8242V5.57031C21.2811 3.75391 22.732 2.17969 24.6667 2.17969ZM24.6667 25.1875H30.2288V5.32813H24.6667V25.1875Z" fill="#2D2D3F"/>
<path d="M3.26471 2.17969H16.0817C17.8954 2.17969 19.3464 3.63281 19.3464 5.44922V24.9453C19.3464 26.7617 17.8954 28.2148 16.0817 28.2148H3.26471C1.45098 28.2148 0 26.7617 0 24.9453V5.44922C0 3.63281 1.45098 2.17969 3.26471 2.17969ZM3.50654 25.1875H15.9608V5.32813H3.50654V25.1875Z" fill="#2D2D3F"/>
<path d="M39.0555 28.3359H35.549V2.17969H39.0555V13.0781H44.6176V2.17969H48.1242V28.3359H44.6176V16.2266H39.0555V28.3359Z" fill="#2D2D3F"/>
<path d="M51.5098 31H49.2124L48.8497 25.1875H50.7843L53.4444 5.20703H52.3562L51.6307 2.05859H59.9739C61.5457 2.05859 62.8758 3.26953 62.8758 4.84375L64.2059 25.0664H66.1405L65.536 30.8789H62.9967L62.3922 28.2148H52.1144L51.5098 31ZM54.049 25.1875H60.8203L59.8529 5.32813H56.7092C56.1046 9.44531 54.049 25.1875 54.049 25.1875Z" fill="#2D2D3F"/>
<path d="M76.6601 28.3359H73.1536V2.17969H76.6601V13.0781H82.2222V2.17969H85.7287V28.3359H82.2222V16.2266H76.6601V28.3359Z" fill="#E74E0F"/>
<path d="M87.1797 2.17969H96.9739V5.32813H94.0719V28.457H90.5654V5.32813H87.1797V2.17969V2.17969Z" fill="#E74E0F"/>
<path d="M107.493 10.7773L101.931 28.3359H98.4248V2.17969H101.931V19.8594L107.493 2.17969H111V28.3359H107.493V10.7773Z" fill="#E74E0F"/>
<path d="M11.5 31H7.99346L8.00001 1H11.5065L11.5 31Z" fill="#2D2D3F"/>
</svg>
